<svg xmlns="http://www.w3.org/2000/svg" viewBox="0 0 32 32" width="32" height="32">
  <defs>
    <linearGradient id="wg" x1="0" y1="0" x2="1" y2="1">
      <stop offset="0%" stop-color="#D4C4F0"/>
      <stop offset="100%" stop-color="#7B5DB8"/>
    </linearGradient>
  </defs>
  <!-- Left upper wing -->
  <path d="M16 15 C16 10, 7 5, 3 9 C3 13, 10 16, 16 15 Z" fill="url(#wg)" opacity="0.92"/>
  <!-- Right upper wing -->
  <path d="M16 15 C16 10, 25 5, 29 9 C29 13, 22 16, 16 15 Z" fill="url(#wg)" opacity="0.92"/>
  <!-- Left lower wing -->
  <path d="M16 17 C16 21, 9 23, 7 21 C8 18, 12 17, 16 17 Z" fill="url(#wg)" opacity="0.5"/>
  <!-- Right lower wing -->
  <path d="M16 17 C16 21, 23 23, 25 21 C24 18, 20 17, 16 17 Z" fill="url(#wg)" opacity="0.5"/>
  <!-- Center 4-pointed sparkle -->
  <path d="M16 12.5 L16.9 15.1 L19.5 16 L16.9 16.9 L16 19.5 L15.1 16.9 L12.5 16 L15.1 15.1 Z" fill="white" opacity="0.97"/>
  <!-- Wing-tip dots -->
  <circle cx="3.5" cy="8.5" r="0.8" fill="rgba(255,255,255,0.7)"/>
  <circle cx="28.5" cy="8.5" r="0.8" fill="rgba(255,255,255,0.7)"/>
</svg>
